<svg xmlns="http://www.w3.org/2000/svg" viewBox="0 0 24 24"><title>Svelte Virtual Chat - Humanspeak</title><rect width="24" height="24" fill="#3dbba0" rx="4" ry="4"/><svg width="18" height="18" x="3" y="3" viewBox="0 0 640 640"><path fill="#fff" d="m145.5 460.9 7.1-17.5-11.9-14.7C112.5 393.8 96 350.6 96 304c0-113 98.3-208 224-208s224 95 224 208-98.3 208-224 208c-32.6 0-63.4-6.4-91.2-18l-11.2-4.6-11.5 3.9-85.9 29.5 25.2-62zM64 576c14.8-5.1 65.6-22.6 152.5-52.4C248.1 536.7 283.2 544 320 544c141.4 0 256-107.5 256-240S461.4 64 320 64 64 171.5 64 304c0 54.4 19.3 104.6 51.8 144.8C88.7 515.5 71.4 557.9 64 576m128-248c13.3 0 24-10.7 24-24s-10.7-24-24-24-24 10.7-24 24 10.7 24 24 24m128 0c13.3 0 24-10.7 24-24s-10.7-24-24-24-24 10.7-24 24 10.7 24 24 24m152-24c0-13.3-10.7-24-24-24s-24 10.7-24 24 10.7 24 24 24 24-10.7 24-24"/></svg></svg>